<svg width="1000" height="1000" viewBox="0 0 1000 1000" fill="none" xmlns="http://www.w3.org/2000/svg">
<g clip-path="url(#clip0_60_125)">
<path d="M579.863 789.874V716.742H600.479V729.14H601.315C602.615 725.24 604.844 721.943 608.002 719.25C611.159 716.464 615.477 715.071 620.956 715.071C625.971 715.071 630.243 716.324 633.772 718.832C637.301 721.339 639.855 725.007 641.433 729.836H641.851C642.501 727.793 643.476 725.89 644.776 724.125C646.169 722.268 647.841 720.689 649.791 719.389C651.741 718.089 653.924 717.067 656.338 716.324C658.753 715.489 661.353 715.071 664.139 715.071C671.197 715.071 676.583 717.578 680.297 722.593C684.105 727.608 686.009 734.758 686.009 744.045V789.874H665.393V745.717C665.393 736.43 662.049 731.787 655.363 731.787C652.298 731.787 649.513 732.669 647.005 734.433C644.498 736.198 643.244 738.891 643.244 742.513V789.874H622.628V745.717C622.628 736.43 619.285 731.787 612.598 731.787C611.113 731.787 609.627 732.019 608.141 732.483C606.748 732.855 605.448 733.505 604.241 734.433C603.126 735.362 602.197 736.523 601.455 737.916C600.804 739.216 600.479 740.748 600.479 742.513V789.874H579.863Z" fill="black"/>
<path d="M554.607 789.874C550.892 789.874 547.781 788.713 545.274 786.392C542.859 784.07 541.327 780.959 540.677 777.059H539.841C538.727 781.795 536.266 785.417 532.458 787.924C528.651 790.339 523.961 791.546 518.389 791.546C511.053 791.546 505.434 789.596 501.534 785.695C497.634 781.795 495.684 776.641 495.684 770.233C495.684 762.525 498.47 756.814 504.041 753.099C509.706 749.292 517.368 747.388 527.026 747.388H538.588V742.791C538.588 739.262 537.659 736.476 535.802 734.433C533.944 732.297 530.833 731.229 526.469 731.229C522.382 731.229 519.132 732.112 516.718 733.876C514.303 735.641 512.307 737.637 510.728 739.866L498.47 729.001C501.441 724.636 505.156 721.246 509.613 718.832C514.164 716.324 520.293 715.071 528.001 715.071C538.402 715.071 546.203 717.346 551.403 721.896C556.603 726.447 559.204 733.087 559.204 741.816V773.855H566.029V789.874H554.607ZM526.051 777.198C529.487 777.198 532.412 776.455 534.826 774.969C537.334 773.483 538.588 771.069 538.588 767.726V759.089H528.558C520.479 759.089 516.439 761.829 516.439 767.308V769.397C516.439 772.09 517.275 774.087 518.946 775.387C520.618 776.594 522.986 777.198 526.051 777.198Z" fill="black"/>
<path d="M460.663 777.617H459.967C459.41 779.567 458.527 781.424 457.32 783.189C456.113 784.86 454.627 786.346 452.863 787.646C451.191 788.854 449.241 789.782 447.012 790.432C444.876 791.175 442.647 791.547 440.326 791.547C431.039 791.547 424.028 788.296 419.292 781.796C414.556 775.202 412.188 765.683 412.188 753.239C412.188 740.795 414.556 731.323 419.292 724.823C424.028 718.322 431.039 715.072 440.326 715.072C445.062 715.072 449.241 716.372 452.863 718.972C456.577 721.572 458.945 724.915 459.967 729.001H460.663V686.794H481.28V789.875H460.663V777.617ZM447.151 774.831C451.052 774.831 454.256 773.902 456.763 772.045C459.363 770.095 460.663 767.448 460.663 764.105V742.513C460.663 739.17 459.363 736.57 456.763 734.713C454.256 732.763 451.052 731.787 447.151 731.787C443.251 731.787 440.001 733.18 437.401 735.966C434.893 738.66 433.639 742.328 433.639 746.971V759.647C433.639 764.29 434.893 768.005 437.401 770.791C440.001 773.484 443.251 774.831 447.151 774.831Z" fill="black"/>
<path d="M381.459 789.873L374.495 766.75H342.038L335.073 789.873H313.621L345.66 692.643H371.848L403.469 789.873H381.459ZM358.475 711.866H357.779L347.053 748.78H369.34L358.475 711.866Z" fill="black"/>
<path d="M839.935 874.202C837.898 874.202 836.123 873.61 834.611 872.427C833.166 871.179 831.654 869.733 830.076 868.09C828.565 866.381 826.692 864.836 824.457 863.456C822.288 862.01 819.495 861.057 816.077 860.597C812.659 860.137 808.321 860.465 803.063 861.583L803.951 856.555C813.481 857.409 821.072 857.574 826.724 857.048C832.443 856.456 836.945 855.733 840.231 854.879C843.517 854.024 846.343 853.597 848.71 853.597C850.221 853.597 851.47 853.992 852.456 854.78C853.507 855.569 854.033 856.818 854.033 858.527C854.033 860.433 853.672 862.339 852.949 864.245C852.292 866.085 851.338 867.761 850.09 869.273C848.841 870.719 847.362 871.902 845.653 872.822C843.944 873.742 842.038 874.202 839.935 874.202ZM777.135 914.623C779.172 914.623 781.144 913.539 783.05 911.37C785.022 909.201 786.796 906.375 788.374 902.891C790.017 899.342 791.43 895.563 792.613 891.553C793.796 887.544 794.716 883.666 795.374 879.92C796.031 876.108 796.36 872.855 796.36 870.16C796.36 867.268 796.031 865.263 795.374 864.146C794.782 863.029 793.895 862.47 792.712 862.47C790.609 862.47 788.571 863.555 786.599 865.723C784.693 867.892 782.919 870.719 781.276 874.202C779.698 877.685 778.318 881.465 777.135 885.54C775.952 889.549 775.032 893.46 774.374 897.272C773.717 901.018 773.389 904.206 773.389 906.835C773.389 909.792 773.684 911.83 774.276 912.947C774.933 914.064 775.886 914.623 777.135 914.623ZM792.613 855.273C800.172 855.273 806.448 856.456 811.443 858.822C816.439 861.188 820.152 864.475 822.584 868.681C825.081 872.822 826.33 877.653 826.33 883.174C826.33 888.826 825.147 894.018 822.781 898.75C820.415 903.417 817.063 907.492 812.725 910.975C808.387 914.393 803.195 917.055 797.148 918.961C791.167 920.867 784.496 921.82 777.135 921.82C769.642 921.82 763.398 920.637 758.403 918.271C753.408 915.905 749.662 912.618 747.164 908.412C744.667 904.206 743.418 899.342 743.418 893.821C743.418 888.234 744.601 883.108 746.967 878.441C749.333 873.709 752.685 869.634 757.023 866.216C761.427 862.733 766.619 860.038 772.6 858.132C778.647 856.226 785.318 855.273 792.613 855.273ZM758.6 1000C750.648 1000 743.944 999.474 738.489 998.423C733.033 997.437 728.63 996.024 725.278 994.183C721.926 992.409 719.494 990.371 717.982 988.071C716.471 985.771 715.715 983.306 715.715 980.677C715.715 977.588 716.799 974.63 718.968 971.804C721.071 969.043 724.982 966.579 730.7 964.41C736.418 962.241 744.667 960.532 755.446 959.283H762.051L761.558 960.466C757.352 961.058 753.737 961.847 750.713 962.832C747.69 963.884 745.225 965.1 743.319 966.48C741.413 967.926 739.967 969.569 738.982 971.41C738.061 973.25 737.601 975.255 737.601 977.423C737.601 979.79 738.521 982.09 740.362 984.325C742.202 986.559 745.225 988.367 749.432 989.747C753.704 991.193 759.488 991.916 766.783 991.916C772.238 991.916 776.806 991.39 780.487 990.338C784.233 989.353 787.027 987.939 788.867 986.099C790.773 984.325 791.726 982.254 791.726 979.888C791.726 978.639 791.266 977.456 790.346 976.339C789.491 975.287 787.914 974.236 785.613 973.184C783.379 972.133 780.257 971.048 776.248 969.931C772.304 968.813 767.243 967.63 761.065 966.382C753.112 964.738 746.869 962.734 742.333 960.368C737.798 958.002 734.644 955.274 732.869 952.185C731.029 949.162 730.109 945.777 730.109 942.03C730.109 937.167 731.489 932.862 734.249 929.115C737.01 925.369 740.986 922.379 746.178 920.144C751.436 917.909 757.779 916.726 765.206 916.595L766.685 919.355C762.215 919.355 759.093 920.078 757.319 921.524C755.61 922.97 754.756 924.548 754.756 926.256C754.756 927.045 755.051 927.801 755.643 928.524C756.234 929.247 757.45 930.003 759.291 930.791C761.131 931.514 763.858 932.336 767.473 933.256C771.088 934.111 775.952 935.096 782.064 936.214C791.332 937.988 798.758 940.256 804.345 943.016C809.997 945.777 814.072 948.932 816.57 952.481C819.067 956.096 820.316 959.973 820.316 964.114C820.316 969.438 818.936 974.302 816.176 978.705C813.415 983.109 809.373 986.888 804.049 990.043C798.726 993.198 792.252 995.629 784.628 997.338C777.003 999.113 768.328 1000 758.6 1000Z" fill="black"/>
<path d="M669.57 935.823L695.104 867.206L701.71 875.29C697.569 874.961 693.888 875.224 690.668 876.078C687.513 876.867 684.358 878.445 681.203 880.811C678.049 883.177 674.335 886.594 670.063 891.064L666.711 888.303C671.969 880.548 677.358 874.304 682.879 869.572C688.4 864.774 693.954 861.29 699.541 859.121C705.127 856.952 710.615 855.868 716.005 855.868C722.906 855.868 727.277 857.15 729.117 859.713C730.957 862.276 730.859 866.417 728.821 872.135L703.09 942.527L694.118 935.231C697.733 935.231 701.249 934.837 704.667 934.048C708.085 933.194 711.634 931.551 715.315 929.119C718.995 926.687 723.07 923.105 727.539 918.373L730.694 921.232C725.502 928.724 720.178 934.837 714.723 939.569C709.268 944.301 703.813 947.785 698.358 950.019C692.902 952.188 687.546 953.273 682.288 953.273C675.452 953.273 671.049 951.892 669.077 949.132C667.171 946.372 667.335 941.935 669.57 935.823ZM706.935 825.996C706.935 822.447 707.756 819.259 709.399 816.433C711.108 813.541 713.409 811.306 716.301 809.729C719.258 808.086 722.577 807.264 726.258 807.264C731.45 807.264 735.689 808.874 738.976 812.095C742.262 815.316 743.905 819.489 743.905 824.616C743.905 828.165 743.051 831.352 741.342 834.179C739.699 837.005 737.398 839.239 734.441 840.883C731.549 842.526 728.23 843.347 724.483 843.347C719.357 843.347 715.15 841.737 711.864 838.516C708.578 835.23 706.935 831.057 706.935 825.996Z" fill="black"/>
<path d="M568.062 946.171L664.481 854.681L670.199 860.892L573.781 952.283L568.062 946.171ZM580.189 896.384L576.738 894.806C579.893 886.591 583.081 879.755 586.301 874.3C589.522 868.845 592.874 864.671 596.357 861.779C599.841 858.822 603.521 857.014 607.399 856.357C611.277 855.7 615.45 856.094 619.92 857.54L654.622 868.483L630.863 892.933L608.582 885.539C604.901 884.356 601.714 883.633 599.019 883.37C596.39 883.107 594.024 883.37 591.921 884.159C589.818 884.948 587.813 886.361 585.907 888.398C584.067 890.37 582.161 893.032 580.189 896.384ZM614.596 949.227L586.005 934.734L609.272 912.158L629.483 922.312C632.966 924.087 636.088 925.204 638.848 925.664C641.675 926.059 644.304 925.763 646.735 924.777C649.167 923.791 651.566 922.082 653.932 919.651C656.364 917.219 658.895 913.965 661.524 909.89L664.876 911.862C659.88 922.049 655.247 930.167 650.975 936.213C646.703 942.194 642.595 946.466 638.651 949.03C634.708 951.593 630.764 952.776 626.821 952.579C622.943 952.382 618.868 951.264 614.596 949.227Z" fill="black"/>
<path d="M496.792 920.834C496.266 923.068 495.839 925.205 495.51 927.242C495.182 929.214 495.017 931.054 495.017 932.763C495.017 936.312 495.675 939.105 496.989 941.143C498.369 943.18 500.407 944.199 503.102 944.199C505.336 944.199 507.735 943.18 510.298 941.143C512.862 939.04 515.326 936.181 517.693 932.566C520.124 928.951 522.326 924.81 524.298 920.144C526.27 915.412 527.847 910.449 529.03 905.257C530.213 900.065 530.805 894.84 530.805 889.581C530.805 885.638 530.312 882.746 529.326 880.906C528.34 879 526.565 878.047 524.002 878.047C522.622 878.047 521.143 878.474 519.566 879.328C517.988 880.183 516.378 881.432 514.735 883.075C513.092 884.652 511.416 886.591 509.707 888.891C508.064 891.192 506.486 893.788 504.975 896.68C503.463 899.506 502.083 902.595 500.834 905.947L496.792 920.834ZM477.765 940.256L493.834 940.847L479.638 988.761L490.384 993.296L489.299 997.042H430.738L431.724 993.394L443.259 988.662L476.779 879.033C476.844 878.244 476.746 877.62 476.483 877.159C476.286 876.699 475.826 876.469 475.103 876.469C472.868 876.469 470.798 876.897 468.892 877.751C466.986 878.605 464.948 880.413 462.779 883.173C460.676 885.934 458.146 890.239 455.188 896.088L451.245 894.511C454.859 884.455 458.704 876.601 462.779 870.948C466.854 865.296 471.389 861.32 476.384 859.019C481.379 856.719 486.966 855.569 493.144 855.569C497.219 855.569 500.637 855.733 503.397 856.062C506.224 856.39 509.608 856.949 513.552 857.738L501.327 898.356L498.862 898.947C503.595 888.497 508.36 880.084 513.158 873.709C518.021 867.268 522.983 862.601 528.044 859.709C533.171 856.752 538.56 855.273 544.213 855.273C551.442 855.273 557.456 857.869 562.254 863.061C567.118 868.254 569.55 875.516 569.55 884.849C569.55 891.553 568.597 898.224 566.691 904.863C564.785 911.435 562.024 917.646 558.409 923.496C554.794 929.28 550.456 934.406 545.396 938.875C540.401 943.345 534.748 946.861 528.439 949.424C522.129 951.988 515.326 953.269 508.031 953.269C499.815 953.269 493.177 952.152 488.116 949.917C483.055 947.617 479.605 944.396 477.765 940.256Z" fill="black"/>
<path d="M384.789 935.823L410.323 867.206L416.928 875.29C412.788 874.961 409.107 875.224 405.886 876.078C402.732 876.867 399.577 878.445 396.422 880.811C393.267 883.177 389.554 886.594 385.282 891.064L381.93 888.303C387.188 880.548 392.577 874.304 398.098 869.572C403.619 864.774 409.173 861.29 414.759 859.121C420.346 856.952 425.834 855.868 431.223 855.868C438.125 855.868 442.495 857.15 444.336 859.713C446.176 862.276 446.077 866.417 444.04 872.135L418.309 942.527L409.337 935.231C412.952 935.231 416.468 934.837 419.886 934.048C423.304 933.194 426.853 931.551 430.533 929.119C434.214 926.687 438.289 923.105 442.758 918.373L445.913 921.232C440.721 928.724 435.397 934.837 429.942 939.569C424.487 944.301 419.031 947.785 413.576 950.019C408.121 952.188 402.765 953.273 397.507 953.273C390.671 953.273 386.268 951.892 384.296 949.132C382.39 946.372 382.554 941.935 384.789 935.823ZM422.153 825.996C422.153 822.447 422.975 819.259 424.618 816.433C426.327 813.541 428.627 811.306 431.519 809.729C434.477 808.086 437.796 807.264 441.477 807.264C446.669 807.264 450.908 808.874 454.194 812.095C457.481 815.316 459.124 819.489 459.124 824.616C459.124 828.165 458.269 831.352 456.56 834.179C454.917 837.005 452.617 839.239 449.659 840.883C446.767 842.526 443.448 843.347 439.702 843.347C434.575 843.347 430.369 841.737 427.083 838.516C423.797 835.23 422.153 831.057 422.153 825.996Z" fill="black"/>
<path d="M345.881 864.343C343.712 864.343 341.51 865.132 339.275 866.709C337.041 868.287 334.872 870.554 332.769 873.512C330.731 876.404 328.891 879.854 327.248 883.863C325.605 887.873 324.29 892.342 323.304 897.271C322.384 902.201 321.924 907.459 321.924 913.045C321.924 919.486 323.239 924.186 325.868 927.143C328.562 930.035 332.473 931.481 337.599 931.481C341.346 931.481 344.862 930.956 348.148 929.904C351.435 928.852 354.655 926.946 357.81 924.186C361.03 921.425 364.251 917.482 367.471 912.355H371.908C367.57 923.331 362.904 931.81 357.908 937.791C352.913 943.706 347.524 947.781 341.74 950.016C335.956 952.185 329.614 953.269 322.713 953.269C314.497 953.269 307.662 951.79 302.206 948.833C296.817 945.809 292.775 941.669 290.08 936.411C287.451 931.153 286.137 925.073 286.137 918.172C286.137 911.665 287.123 905.356 289.094 899.243C291.066 893.065 293.892 887.314 297.573 881.99C301.319 876.667 305.821 872 311.079 867.991C316.337 863.982 322.22 860.86 328.727 858.625C335.233 856.39 342.299 855.273 349.923 855.273C357.481 855.273 363.397 856.16 367.669 857.935C372.007 859.709 375.063 862.076 376.837 865.033C378.678 867.925 379.598 871.113 379.598 874.596C379.598 878.08 378.973 881.432 377.725 884.652C376.542 887.873 374.898 890.765 372.795 893.328C368.786 894.905 364.35 896.483 359.486 898.06C354.622 899.572 349.496 901.083 344.106 902.595C338.782 904.041 333.36 905.421 327.839 906.736C322.384 908.05 317.093 909.299 311.967 910.482L312.361 903.482C318.802 901.051 324.257 898.816 328.727 896.778C333.262 894.675 336.975 892.671 339.867 890.765C342.825 888.793 345.092 886.821 346.669 884.849C348.247 882.878 349.331 880.84 349.923 878.737C350.58 876.634 350.909 874.399 350.909 872.033C350.909 870.193 350.712 868.714 350.317 867.596C349.989 866.479 349.43 865.658 348.641 865.132C347.918 864.606 346.998 864.343 345.881 864.343Z" fill="black"/>
<path d="M237.179 824.121L198.533 950.313H145L146.084 946.567L161.267 940.75L197.153 824.022L185.125 818.403L186.21 814.558H253.545L252.362 818.403L237.179 824.121ZM236.095 943.313L277.009 902.597L281.741 905.258L254.432 958.989H250.784L239.348 950.313H173.393L177.337 939.666H249.996L236.095 943.313Z" fill="black"/>
<path d="M321.378 471.572C327.367 506.655 344.063 540.945 376.581 550.581L378.14 551.022L384.019 552.596L385.593 558.473C387.599 565.958 389.93 571.256 392.909 575.241C395.778 579.076 399.631 582.211 405.55 584.761C418.155 590.192 439.061 592.615 476.107 592.615H541.475L535.83 613.694H476.107C439.377 613.694 414.314 611.49 397.208 604.119C388.271 600.268 381.332 594.958 376.027 587.862C371.965 582.43 369.11 576.277 366.922 569.614C324.895 555.078 306.745 511.101 300.602 475.119L321.378 471.572Z" fill="black"/>
<path d="M411.619 474.663C419.563 481.132 440.098 489.324 466.762 491.431C492.965 493.501 523.358 489.524 550.754 473.708L561.293 491.962C529.363 510.397 494.473 514.764 465.101 512.444C441.417 510.572 420.135 504.235 406.315 496.388L397.484 505.219L382.581 490.312L404.239 468.654L411.619 474.663Z" fill="black"/>
<path d="M462.631 7.23603C536.591 -9.19915 611.178 2.91173 662.537 37.9836C670.298 43.2831 677.808 49.5516 684.95 56.8456L673.84 98.3364C664.209 84.6473 653.643 74.5119 643.051 67.22C607.279 45.1603 566.555 42.8529 535.36 54.4544C504.332 65.995 484.007 90.4314 484.006 122.749H483.793L449.245 113.646C451.914 80.9039 468.918 54.8763 493.048 37.4759C485.497 38.489 477.887 39.8342 470.251 41.531C437.368 48.8385 421.951 65.0679 414.08 80.3544C410.546 87.2183 408.37 94.2245 407.035 100.724C407.035 100.724 403.207 100.724 400.205 100.724C364.372 100.639 330.597 114.841 315.753 147.587C303.893 172.48 300.708 201.902 301.586 231.564C302.184 237.267 304.15 246.629 312.539 246.781C335.784 243.299 358.135 244.774 380.42 250.52C385.114 251.65 390.024 253.266 394.913 255.349C394.397 249.75 394.424 244.735 394.424 241.314H415.502C415.502 248.756 415.61 258.026 418.35 265.37C419.646 268.844 421.319 271.252 423.305 272.803C425.166 274.256 428.071 275.566 433.069 275.566C435.962 275.566 438.729 276.756 440.719 278.856C442.585 280.825 443.615 283.434 443.608 286.133L443.593 286.673V286.682C443.592 286.688 443.592 286.698 443.591 286.711C443.59 286.737 443.587 286.779 443.584 286.833C443.578 286.941 443.57 287.104 443.558 287.318C443.536 287.747 443.503 288.386 443.461 289.212C443.377 290.864 443.257 293.274 443.116 296.291C442.832 302.327 442.46 310.791 442.107 320.494C441.493 337.366 440.937 360.143 440.997 380.388C441.027 390.517 441.213 399.916 441.611 407.581C442.027 415.57 442.639 420.747 443.248 423.019C444.275 426.853 445.646 428.236 446.31 428.721C446.921 429.167 447.96 429.612 450.011 429.417C454.691 428.974 461.889 425.338 468.932 418.295L472.019 415.209H502.451V407.507H523.529V407.542C524.357 407.469 525.187 407.438 526.017 407.444C546.463 408.929 560.515 422.45 572.324 436.1C572.971 436.891 573.611 437.696 574.238 438.509C566.633 442.9 559.027 447.291 551.421 451.683C551.155 450.948 550.875 450.21 550.585 449.478C545.347 436.579 536.576 422.659 524.637 418.058C524.269 417.933 523.9 417.821 523.529 417.722V436.287H480.563C472.304 443.638 462.165 449.439 451.998 450.401C445.932 450.975 439.474 449.828 433.882 445.746C428.343 441.702 424.803 435.619 422.888 428.476C421.629 423.776 420.968 416.501 420.561 408.677C420.137 400.527 419.95 390.747 419.919 380.451C419.858 359.842 420.423 336.77 421.043 319.728C421.099 318.191 421.156 316.684 421.213 315.213C420.977 313.234 420.627 311.41 420.146 309.547C408.716 271.284 347.915 275.402 313.082 289.62C311.523 290.306 310.017 291.029 308.638 291.766C308.638 291.766 308.355 291.578 306.664 290.088C299.53 283.684 293.347 276.161 287.613 268.369C261.945 230.915 239.251 186.491 248.256 135.191C258.153 80.9412 320.315 49.7278 371.447 59.3191C375.594 60.0744 379.797 60.9411 383.991 62.1134C396.957 38.3171 420.896 16.5106 462.631 7.23603Z" fill="black"/>
<path d="M398.232 324.615L344.658 331.641L340.549 300.291L394.122 293.265L398.232 324.615Z" fill="black"/>
<path d="M573.883 296.778L569.773 328.128L516.2 321.102L520.31 289.752L573.883 296.778Z" fill="black"/>
<path d="M511.918 130.16C525.016 105.192 550.664 85.8305 580.607 86.9585C616.853 85.8954 649.323 120.525 650.199 153.284C653.123 186.018 642.213 215.189 629.105 241.532C626.782 246.106 624.34 250.603 621.801 255.027C621.63 255.325 621.454 255.621 621.282 255.919C614.841 267.074 609.004 278.51 602.564 289.665C601.089 288.581 599.642 287.554 598.14 286.539C571.677 268.316 535.826 260.392 503.317 271.058C501.575 271.653 499.812 272.337 498.161 273.058C495.746 268.876 493.331 264.692 490.916 260.509C492.758 259.212 494.718 257.974 496.65 256.847C529.291 238.32 570.427 237.122 606.821 249.999C607.176 249.257 607.533 248.515 607.881 247.771C609.94 243.375 611.89 238.94 613.71 234.475C624.093 208.903 630.89 181.149 626.375 156.641C622.269 131.853 603.113 116.373 580.607 118.14C567.347 118.566 555.303 127.72 548.184 139.714L511.918 130.16Z" fill="black"/>
</g>
<defs>
<clipPath id="clip0_60_125">
<rect width="1000" height="1000" fill="white"/>
</clipPath>
</defs>
</svg>
