<svg width="1008" height="282" viewBox="0 0 1008 282" fill="none" xmlns="http://www.w3.org/2000/svg">
<path d="M589.779 269.365H269.249C269.109 269.365 268.999 269.475 268.999 269.615V273.855C268.999 273.995 269.109 274.105 269.249 274.105H589.779C589.919 274.105 590.029 273.995 590.029 273.855V269.615C590.029 269.475 589.919 269.365 589.779 269.365Z" fill="#212121"/>
<path d="M620.199 280.035C618.579 279.055 617.399 277.755 616.649 276.135C615.899 274.495 615.529 272.665 615.529 270.635C615.529 268.605 615.899 266.795 616.669 265.155C617.439 263.515 618.619 262.205 620.239 261.215C621.859 260.235 623.919 259.745 626.409 259.745C629.879 259.745 632.429 260.455 634.069 261.885C635.659 263.245 636.599 265.335 636.889 268.115C636.909 268.265 636.789 268.395 636.639 268.395H632.279C632.149 268.395 632.049 268.295 632.039 268.175C631.869 266.685 631.379 265.565 630.549 264.805C629.679 264.015 628.329 263.605 626.479 263.605C624.419 263.605 622.909 264.185 621.949 265.365C620.989 266.545 620.499 268.295 620.499 270.635C620.499 272.975 620.959 274.725 621.889 275.885C622.799 277.025 624.299 277.605 626.339 277.605C628.269 277.605 629.679 277.185 630.599 276.365C631.469 275.575 631.969 274.405 632.119 272.815C632.129 272.685 632.239 272.585 632.359 272.585H636.739C636.889 272.585 637.009 272.715 636.989 272.865C636.819 274.775 636.379 276.365 635.679 277.605C634.929 278.915 633.789 279.885 632.289 280.535C630.769 281.175 628.799 281.495 626.389 281.495C623.979 281.495 621.839 280.995 620.219 280.025L620.199 280.045V280.035Z" fill="#212121"/>
<path d="M678.569 280.965H673.989C673.879 280.965 673.789 280.895 673.749 280.795L672.369 276.895C672.329 276.795 672.239 276.725 672.129 276.725H663.199C663.089 276.725 662.999 276.795 662.959 276.895L661.579 280.795C661.539 280.895 661.449 280.965 661.339 280.965H657.109C656.939 280.965 656.819 280.795 656.869 280.635L663.979 260.445C664.019 260.345 664.109 260.275 664.219 260.275H671.089C671.199 260.275 671.289 260.345 671.329 260.445L678.559 280.965H678.539H678.569ZM667.429 264.205L664.419 272.765C664.359 272.925 664.479 273.095 664.659 273.095H670.679C670.849 273.095 670.969 272.925 670.919 272.765L667.909 264.205C667.829 263.985 667.519 263.985 667.439 264.205H667.429Z" fill="#212121"/>
<path d="M695.969 260.275H714.099C714.239 260.275 714.349 260.385 714.349 260.525V263.765C714.349 263.905 714.239 264.015 714.099 264.015H707.769C707.629 264.015 707.519 264.125 707.519 264.265V280.715C707.519 280.855 707.409 280.965 707.269 280.965H703.029C702.889 280.965 702.779 280.855 702.779 280.715V264.265C702.779 264.125 702.669 264.015 702.529 264.015H696.199C696.059 264.015 695.949 263.905 695.949 263.765V260.275H695.969Z" fill="#212121"/>
<path d="M753.599 280.965H749.019C748.909 280.965 748.819 280.895 748.779 280.795L747.399 276.895C747.359 276.795 747.269 276.725 747.159 276.725H738.229C738.119 276.725 738.029 276.795 737.989 276.895L736.609 280.795C736.569 280.895 736.479 280.965 736.369 280.965H732.139C731.969 280.965 731.849 280.795 731.899 280.635L739.009 260.445C739.049 260.345 739.139 260.275 739.249 260.275H746.119C746.229 260.275 746.319 260.345 746.359 260.445L753.589 280.965H753.569H753.599ZM742.459 264.205L739.449 272.765C739.389 272.925 739.509 273.095 739.689 273.095H745.709C745.879 273.095 745.999 272.925 745.949 272.765L742.939 264.205C742.859 263.985 742.549 263.985 742.469 264.205H742.459Z" fill="#212121"/>
<path d="M800.999 260.275V280.715C800.999 280.855 800.889 280.965 800.749 280.965H796.519C796.379 280.965 796.269 280.855 796.269 280.715V265.045C796.269 264.755 795.869 264.695 795.779 264.975L790.879 280.795C790.849 280.895 790.749 280.975 790.639 280.975H785.529C785.419 280.975 785.319 280.905 785.289 280.795L780.349 264.865C780.269 264.595 779.859 264.655 779.859 264.935V280.715C779.859 280.855 779.749 280.965 779.609 280.965H775.419C775.279 280.965 775.169 280.855 775.169 280.715V260.525C775.169 260.385 775.279 260.275 775.419 260.275H783.129C783.239 260.275 783.339 260.345 783.369 260.455L787.939 275.505C788.009 275.745 788.349 275.745 788.419 275.505L792.989 260.455C793.019 260.345 793.119 260.275 793.229 260.275H801.019H800.999Z" fill="#212121"/>
<path d="M843.489 280.965H838.909C838.799 280.965 838.709 280.895 838.669 280.795L837.289 276.895C837.249 276.795 837.159 276.725 837.049 276.725H828.119C828.009 276.725 827.919 276.795 827.879 276.895L826.499 280.795C826.459 280.895 826.369 280.965 826.259 280.965H822.029C821.859 280.965 821.739 280.795 821.789 280.635L828.899 260.445C828.939 260.345 829.029 260.275 829.139 260.275H836.009C836.119 260.275 836.209 260.345 836.249 260.445L843.479 280.965H843.459H843.489ZM832.349 264.205L829.339 272.765C829.279 272.925 829.399 273.095 829.579 273.095H835.599C835.769 273.095 835.889 272.925 835.839 272.765L832.829 264.205C832.749 263.985 832.439 263.985 832.359 264.205H832.349Z" fill="#212121"/>
<path d="M882.249 277.335C882.249 278.105 882.269 278.745 882.329 279.265C882.379 279.695 882.459 280.175 882.569 280.685C882.599 280.845 882.489 280.995 882.329 280.995H878.089C877.979 280.995 877.879 280.925 877.849 280.825C877.609 280.025 877.489 278.895 877.489 277.425V276.325C877.489 275.205 877.179 274.375 876.579 273.815C875.979 273.255 875.129 272.985 874.049 272.985H870.039C869.899 272.985 869.789 273.095 869.789 273.235V280.745C869.789 280.885 869.679 280.995 869.539 280.995H865.279C865.139 280.995 865.029 280.885 865.029 280.745V260.555C865.029 260.415 865.139 260.305 865.279 260.305H875.949C878.169 260.305 879.879 260.825 881.039 261.825C882.199 262.845 882.809 264.235 882.809 265.975C882.809 267.385 882.419 268.565 881.609 269.545C880.969 270.295 880.199 270.835 879.279 271.165C879.059 271.245 879.069 271.545 879.279 271.625C880.109 271.925 880.779 272.335 881.269 272.865C881.929 273.545 882.249 274.585 882.249 275.975V277.345V277.335ZM874.899 269.575C875.939 269.575 876.689 269.325 877.159 268.845C877.619 268.365 877.869 267.615 877.869 266.625C877.869 264.835 876.889 263.945 874.919 263.945H870.059C869.919 263.945 869.809 264.055 869.809 264.195V269.315C869.809 269.455 869.919 269.565 870.059 269.565H874.899V269.575Z" fill="#212121"/>
<path d="M925.739 280.965H921.159C921.049 280.965 920.959 280.895 920.919 280.795L919.539 276.895C919.499 276.795 919.409 276.725 919.299 276.725H910.369C910.259 276.725 910.169 276.795 910.129 276.895L908.749 280.795C908.709 280.895 908.619 280.965 908.509 280.965H904.279C904.109 280.965 903.989 280.795 904.039 280.635L911.149 260.445C911.189 260.345 911.279 260.275 911.389 260.275H918.259C918.369 260.275 918.459 260.345 918.499 260.445L925.729 280.965H925.709H925.739ZM914.599 264.205L911.589 272.765C911.529 272.925 911.649 273.095 911.829 273.095H917.849C918.019 273.095 918.139 272.925 918.089 272.765L915.079 264.205C914.999 263.985 914.689 263.985 914.609 264.205H914.599Z" fill="#212121"/>
<path d="M962.769 260.275H967.069C967.209 260.275 967.319 260.385 967.319 260.525V280.715C967.319 280.855 967.209 280.965 967.069 280.965H959.629C959.529 280.965 959.439 280.905 959.399 280.815L952.989 266.825C952.489 265.705 952.099 264.645 951.809 263.645V280.705C951.809 280.845 951.699 280.955 951.559 280.955H947.509C947.369 280.955 947.259 280.845 947.259 280.705V260.515C947.259 260.375 947.369 260.265 947.509 260.265H954.949C955.049 260.265 955.139 260.325 955.179 260.415L961.659 274.625C962.079 275.605 962.449 276.595 962.779 277.615V260.265L962.769 260.275Z" fill="#212121"/>
<path d="M994.109 274.165C994.169 275.345 994.589 276.285 995.379 276.965C996.169 277.645 997.329 277.985 998.889 277.985C1000.45 277.985 1001.46 277.755 1002.08 277.275C1002.73 276.795 1003.06 276.135 1003.06 275.265C1003.06 274.495 1002.83 273.895 1002.38 273.485C1001.92 273.045 1001.21 272.775 1000.3 272.655L995.709 272.055C993.859 271.825 992.449 271.205 991.449 270.205C990.469 269.205 989.979 267.855 989.979 266.155C989.979 264.205 990.709 262.645 992.179 261.485C993.649 260.325 995.789 259.745 998.619 259.745C1001.45 259.745 1003.75 260.365 1005.22 261.595C1006.63 262.765 1007.43 264.265 1007.61 266.145C1007.62 266.295 1007.5 266.425 1007.35 266.425H1003.21C1003.09 266.425 1002.99 266.335 1002.97 266.215C1002.81 265.315 1002.39 264.605 1001.71 264.095C1000.98 263.535 999.939 263.245 998.619 263.245C997.369 263.245 996.419 263.475 995.749 263.945C995.089 264.425 994.749 265.065 994.749 265.895C994.749 266.535 994.939 267.055 995.329 267.475C995.729 267.885 996.349 268.115 997.179 268.205L1001.5 268.725C1005.72 269.205 1007.82 271.235 1007.82 274.785C1007.82 279.265 1004.81 281.505 998.819 281.505C995.659 281.505 993.339 280.825 991.859 279.425C990.429 278.095 989.659 276.445 989.529 274.425C989.529 274.275 989.639 274.155 989.789 274.155H994.109V274.165Z" fill="#212121"/>
<path d="M357.349 146.455C357.349 128.505 342.729 113.895 324.759 113.895H269.989C269.439 113.895 268.989 114.345 268.989 114.895V121.135C268.989 121.685 269.439 122.135 269.989 122.135H324.759C338.179 122.135 349.079 133.055 349.079 146.435C349.079 159.815 338.159 170.735 324.759 170.735H295.459C294.909 170.735 294.459 171.185 294.459 171.735V177.975C294.459 178.525 294.909 178.975 295.459 178.975H324.759C338.179 178.975 349.079 189.895 349.079 203.275C349.079 216.655 338.159 227.575 324.759 227.575H278.259C277.709 227.575 277.259 227.125 277.259 226.575V203.135C277.259 202.585 276.809 202.135 276.259 202.135H270.009C269.459 202.135 269.009 202.585 269.009 203.135V234.815C269.009 235.365 269.459 235.815 270.009 235.815H324.779C342.749 235.815 357.369 221.205 357.369 203.255C357.369 192.015 351.459 181.575 342.039 175.655C341.429 175.275 341.429 174.365 342.039 173.985C351.459 168.075 357.369 157.625 357.369 146.385L357.349 146.445V146.455Z" fill="#212121"/>
<path d="M952.249 227.615C938.829 227.615 927.929 216.695 927.929 203.315C927.929 189.935 938.849 179.015 952.249 179.015H981.549C982.099 179.015 982.549 178.565 982.549 178.015V171.775C982.549 171.225 982.099 170.775 981.549 170.775H952.249C938.829 170.775 927.929 159.855 927.929 146.475C927.929 133.095 938.849 122.175 952.249 122.175H998.749C999.299 122.175 999.749 122.625 999.749 123.175V146.615C999.749 147.165 1000.2 147.615 1000.75 147.615H1007C1007.55 147.615 1008 147.165 1008 146.615V114.895C1008 114.345 1007.55 113.895 1007 113.895H952.229C934.259 113.895 919.639 128.505 919.639 146.455C919.639 157.695 925.549 168.135 934.969 174.055C935.579 174.435 935.579 175.345 934.969 175.725C925.549 181.635 919.639 192.085 919.639 203.325C919.639 221.275 934.259 235.885 952.229 235.885H1007C1007.55 235.885 1008 235.435 1008 234.885V228.645C1008 228.095 1007.55 227.645 1007 227.645H952.229L952.249 227.625V227.615Z" fill="#212121"/>
<path d="M491.919 113.895H485.669C485.119 113.895 484.669 114.345 484.669 114.895V234.875C484.669 235.425 485.119 235.875 485.669 235.875H556.259C556.809 235.875 557.259 235.425 557.259 234.875V228.615C557.259 228.065 556.809 227.615 556.259 227.615H493.919C493.369 227.615 492.919 227.165 492.919 226.615V114.895C492.919 114.345 492.469 113.895 491.919 113.895Z" fill="#212121"/>
<path d="M848.569 122.125C869.479 122.125 888.069 136.155 893.809 156.245L894.119 157.325L902.049 155.065L901.739 153.985C895.009 130.365 873.139 113.895 848.569 113.895C818.079 113.895 793.279 138.675 793.279 169.135V180.615C793.279 211.075 818.079 235.855 848.569 235.855C873.139 235.855 895.009 219.375 901.739 195.765L902.049 194.685L894.119 192.425L893.809 193.505C888.079 213.595 869.489 227.625 848.569 227.625C822.629 227.625 801.529 206.545 801.529 180.625V169.145C801.529 143.225 822.629 122.145 848.569 122.145V122.125Z" fill="#212121"/>
<path d="M423.309 113.805H413.769C413.349 113.805 412.979 114.065 412.829 114.455L367.539 234.515C367.289 235.165 367.779 235.865 368.479 235.865L375.189 235.845C375.609 235.845 375.979 235.585 376.119 235.195L417.599 125.095C417.929 124.235 419.149 124.235 419.469 125.095L461.089 235.215C461.239 235.605 461.609 235.865 462.029 235.865L468.739 235.845C469.439 235.845 469.919 235.145 469.669 234.495L424.229 114.445C424.079 114.055 423.709 113.795 423.289 113.795L423.309 113.805Z" fill="#212121"/>
<path d="M620.149 113.805H610.609C610.189 113.805 609.819 114.065 609.669 114.455L564.399 234.515C564.149 235.165 564.639 235.865 565.339 235.865L572.049 235.845C572.469 235.845 572.839 235.585 572.979 235.195L614.459 125.095C614.789 124.235 616.009 124.235 616.329 125.095L657.949 235.215C658.099 235.605 658.469 235.865 658.889 235.865L665.599 235.845C666.299 235.845 666.779 235.145 666.529 234.495L621.069 114.445C620.919 114.055 620.549 113.795 620.129 113.795L620.149 113.805Z" fill="#212121"/>
<path d="M765.889 223.045C765.889 224.045 764.589 224.425 764.049 223.585L693.859 114.325L693.529 113.805H682.499C681.949 113.805 681.499 114.255 681.499 114.805V234.875C681.499 235.425 681.949 235.875 682.499 235.875H688.769C689.319 235.875 689.769 235.425 689.769 234.875V126.615C689.769 125.615 691.069 125.235 691.609 126.075L761.799 235.355L762.129 235.875H773.139C773.689 235.875 774.139 235.425 774.139 234.875V114.895C774.139 114.345 773.689 113.895 773.139 113.895H766.889C766.339 113.895 765.889 114.345 765.889 114.895V223.055V223.045Z" fill="#212121"/>
<path fill-rule="evenodd" clip-rule="evenodd" d="M110.719 141.275L113.059 58.1353C113.109 56.7953 111.299 56.3553 110.699 57.5553L17.6988 244.985C17.3288 245.745 17.7888 246.655 18.6488 246.765L126.169 262.155C126.929 262.275 127.169 261.165 126.449 260.955L41.3688 235.455C40.6488 235.245 40.2788 234.435 40.5788 233.765L101.069 96.7354C101.579 95.5754 103.269 95.8354 103.429 97.0554L109.519 141.365C109.609 142.125 110.749 142.055 110.749 141.295L110.729 141.275H110.719Z" fill="#212121"/>
<path fill-rule="evenodd" clip-rule="evenodd" d="M109.079 180.195L108.919 245.915C108.919 246.845 109.889 247.445 110.729 247.025L204.449 199.565C205.029 199.265 205.279 198.595 205.029 197.995L124.249 0.395336C123.949 -0.344664 122.859 0.0453357 123.069 0.815336L180.639 194.885C180.829 195.465 180.549 196.115 179.989 196.365L121.049 224.475C120.329 224.825 119.449 224.405 119.289 223.595L110.299 180.065C110.139 179.325 109.069 179.445 109.069 180.185L109.079 180.195Z" fill="#212121"/>
<path fill-rule="evenodd" clip-rule="evenodd" d="M129.739 251.555L156.649 265.435C157.779 266.015 157.409 267.705 156.159 267.775L0.578899 276.685C-0.211101 276.735 -0.181101 277.915 0.598899 277.935L236.229 280.965C236.969 280.965 237.109 279.895 236.369 279.735L130.129 250.395C129.409 250.235 129.059 251.225 129.709 251.555H129.729H129.739Z" fill="#212121"/>
</svg>
