<?xml version="1.0" encoding="utf-8"?>
<!-- Generator: Adobe Illustrator 14.0.0, SVG Export Plug-In . SVG Version: 6.00 Build 43363)  -->
<!DOCTYPE svg PUBLIC "-//W3C//DTD SVG 1.1//EN" "http://www.w3.org/Graphics/SVG/1.1/DTD/svg11.dtd">
<svg version="1.1" id="Layer_1" xmlns="http://www.w3.org/2000/svg" xmlns:xlink="http://www.w3.org/1999/xlink" x="0px" y="0px"
	 width="275px" height="60px" viewBox="0 0 275 60" enable-background="new 0 0 275 60" xml:space="preserve">
<path fill="#282828" d="M107.937,35.486c0,1.438-0.412,2.521-1.236,3.256c-0.824,0.732-2.037,1.1-3.64,1.1h-1.657v-8.732h1.714
	c1.554,0,2.745,0.381,3.575,1.141S107.937,34.088,107.937,35.486 M106.964,35.477c0-1.125-0.32-1.979-0.961-2.567
	c-0.641-0.589-1.576-0.884-2.806-0.884h-0.82v6.9h0.719c1.331,0,2.308-0.279,2.933-0.843
	C106.652,37.521,106.964,36.652,106.964,35.477"/>
<polygon fill="#282828" points="125.231,39.843 120.808,39.843 120.808,31.109 125.231,31.109 125.231,32.025 121.781,32.025 
	121.781,34.678 125.231,34.678 125.231,35.589 121.781,35.589 121.781,38.926 125.231,38.926 "/>
<polygon fill="#282828" points="146.258,40.086 139.493,33.202 139.493,39.843 138.521,39.843 138.521,30.866 145.285,37.732 
	145.285,31.109 146.258,31.109 "/>
<polygon fill="#282828" points="163.96,31.984 161.896,31.984 161.896,39.843 160.922,39.843 160.922,31.984 158.863,31.984 
	158.863,31.109 163.96,31.109 "/>
<rect x="176.293" y="31.109" fill="#282828" width="0.975" height="8.731"/>
<path fill="#282828" d="M195.232,37.512c0,0.777-0.24,1.389-0.724,1.836c-0.483,0.446-1.143,0.67-1.979,0.67
	c-0.576,0-1.081-0.132-1.514-0.396c-0.432-0.265-0.746-0.63-0.94-1.099l0.694-0.594c0.133,0.365,0.359,0.652,0.683,0.859
	c0.321,0.208,0.694,0.313,1.116,0.313c0.529,0,0.941-0.137,1.242-0.408c0.299-0.271,0.449-0.653,0.449-1.147
	c0-0.399-0.139-0.748-0.416-1.044s-0.742-0.604-1.395-0.925c-0.772-0.382-1.313-0.752-1.614-1.114
	c-0.304-0.361-0.455-0.82-0.455-1.374c0-0.646,0.218-1.165,0.655-1.562s1.017-0.594,1.736-0.594c0.438,0,0.821,0.086,1.153,0.258
	c0.332,0.17,0.612,0.429,0.843,0.771l-0.662,0.617c-0.127-0.229-0.313-0.409-0.557-0.538c-0.242-0.128-0.518-0.191-0.822-0.191
	c-0.427,0-0.763,0.106-1.008,0.322c-0.244,0.215-0.367,0.505-0.367,0.871c0,0.331,0.094,0.609,0.279,0.837
	c0.188,0.226,0.557,0.488,1.105,0.786l0.052,0.021C194.419,35.564,195.232,36.505,195.232,37.512"/>
<polygon fill="#282828" points="212.313,31.984 210.248,31.984 210.248,39.843 209.275,39.843 209.275,31.984 207.217,31.984 
	207.217,31.109 212.313,31.109 "/>
<path fill="#282828" d="M229.98,39.843h-1.184l-2.675-4.124h-0.289v4.124h-0.974v-8.733h1.815c0.933,0,1.642,0.203,2.13,0.607
	c0.488,0.405,0.732,0.987,0.732,1.745c0,0.675-0.209,1.21-0.625,1.604c-0.417,0.395-0.995,0.601-1.732,0.619L229.98,39.843z
	 M228.566,33.496c0-0.51-0.162-0.882-0.481-1.117c-0.319-0.234-0.819-0.354-1.499-0.354h-0.752v2.855h0.752
	c0.693,0,1.197-0.109,1.512-0.328C228.409,34.335,228.566,33.982,228.566,33.496"/>
<polygon fill="#282828" points="247.823,31.109 245.085,35.832 245.085,39.843 244.111,39.843 244.111,35.832 241.324,31.109 
	242.41,31.109 244.609,34.955 246.742,31.109 "/>
<path fill="#282828" d="M78.961,19.708c0,0.777-0.241,1.389-0.724,1.836c-0.483,0.447-1.143,0.67-1.979,0.67
	c-0.577,0-1.082-0.132-1.513-0.396c-0.432-0.265-0.746-0.63-0.942-1.097l0.696-0.595c0.132,0.366,0.359,0.652,0.682,0.86
	c0.322,0.207,0.695,0.311,1.117,0.311c0.528,0,0.942-0.136,1.242-0.407c0.299-0.271,0.45-0.654,0.45-1.147
	c0-0.4-0.139-0.748-0.416-1.045c-0.277-0.295-0.742-0.604-1.394-0.924c-0.773-0.381-1.312-0.752-1.615-1.115
	c-0.304-0.361-0.456-0.82-0.456-1.374c0-0.645,0.219-1.165,0.656-1.562c0.437-0.396,1.016-0.594,1.736-0.594
	c0.438,0,0.822,0.086,1.154,0.258c0.332,0.172,0.613,0.429,0.843,0.771l-0.662,0.617c-0.128-0.23-0.314-0.409-0.557-0.537
	c-0.243-0.129-0.518-0.192-0.823-0.192c-0.426,0-0.762,0.106-1.007,0.322c-0.245,0.215-0.368,0.505-0.368,0.871
	c0,0.331,0.094,0.61,0.28,0.837s0.555,0.488,1.105,0.786l0.051,0.022C78.146,17.761,78.961,18.702,78.961,19.708"/>
<polygon fill="#282828" points="101.074,22.039 100.09,22.039 99.253,16.083 96.385,22.282 93.523,16.083 92.686,22.039 
	91.69,22.039 93.093,13.063 96.408,20.206 99.694,13.063 "/>
<rect x="113.945" y="13.306" fill="#282828" width="0.973" height="8.733"/>
<polygon fill="#282828" points="131.545,22.039 128.247,22.039 128.247,13.306 129.22,13.306 129.22,21.146 131.545,21.146 "/>
<polygon fill="#282828" points="148.482,22.039 144.061,22.039 144.061,13.306 148.482,13.306 148.482,14.222 145.032,14.222 
	145.032,16.875 148.482,16.875 148.482,17.786 145.032,17.786 145.032,21.122 148.482,21.122 "/>
<path fill="#282828" d="M183.688,21.474c-0.319,0.207-0.752,0.383-1.295,0.525c-0.543,0.144-1.037,0.215-1.481,0.215
	c-1.339,0-2.447-0.429-3.326-1.287c-0.878-0.857-1.317-1.945-1.317-3.266c0-1.282,0.446-2.357,1.342-3.227
	c0.894-0.869,1.998-1.305,3.313-1.305c0.548,0,1.062,0.067,1.544,0.201c0.482,0.134,0.891,0.322,1.223,0.563v1.092
	c-0.358-0.29-0.774-0.52-1.248-0.688s-0.939-0.251-1.399-0.251c-1.078,0-1.981,0.344-2.709,1.032s-1.092,1.549-1.092,2.582
	c0,1.041,0.35,1.906,1.05,2.6c0.699,0.691,1.564,1.037,2.6,1.037c0.508,0,1.016-0.084,1.519-0.252
	c0.504-0.168,0.931-0.396,1.28-0.688v1.117H183.688z"/>
<polygon fill="#282828" points="200.947,22.039 196.523,22.039 196.523,13.306 200.947,13.306 200.947,14.222 197.497,14.222 
	197.497,16.875 200.947,16.875 200.947,17.786 197.497,17.786 197.497,21.122 200.947,21.122 "/>
<polygon fill="#282828" points="221.975,22.282 215.21,15.398 215.21,22.039 214.236,22.039 214.236,13.063 221.002,19.929 
	221.002,13.306 221.975,13.306 "/>
<polygon fill="#282828" points="239.677,14.183 237.611,14.183 237.611,22.039 236.639,22.039 236.639,14.183 234.58,14.183 
	234.58,13.306 239.677,13.306 "/>
<polygon fill="#282828" points="256.648,22.039 252.225,22.039 252.225,13.306 256.648,13.306 256.648,14.222 253.198,14.222 
	253.198,16.875 256.648,16.875 256.648,17.786 253.198,17.786 253.198,21.122 256.648,21.122 "/>
<path fill="#282828" d="M275,22.039h-1.182l-2.676-4.124h-0.289v4.124h-0.974v-8.733h1.815c0.932,0,1.642,0.203,2.13,0.607
	c0.487,0.406,0.731,0.988,0.731,1.746c0,0.675-0.207,1.209-0.625,1.604c-0.416,0.394-0.994,0.6-1.732,0.619L275,22.039z
	 M273.586,15.692c0-0.509-0.16-0.881-0.48-1.117c-0.319-0.235-0.819-0.354-1.498-0.354h-0.752v2.856h0.752
	c0.692,0,1.197-0.109,1.51-0.327S273.586,16.179,273.586,15.692"/>
<path fill="#F07222" d="M12.246,0.294c-1.845-0.579-11.5-0.125-11.5-0.125c-0.144,0-0.282,0.057-0.383,0.159L0.16,0.531
	C-0.172,0.862,0.045,1.43,0.513,1.455c0.899,0.048,2.135,0.121,3.141,0.203v0.015c0.478,0.034,0.928,0.076,1.351,0.125h0.001
	C5.014,1.799,5.021,1.8,5.028,1.801c2.214,0.263,3.684,0.748,4.408,1.454c0.866,0.844,1.298,2.743,1.298,5.696v36.035
	c0,3.043-0.446,4.938-1.337,5.686c-1.565,1.313-3.749,1.497-5.708,1.516c-0.502,0.004-1.005-0.002-1.507-0.015
	C1.671,52.161,1.156,52.1,0.645,52.1c-0.077-0.006,0.609,1.161,1.469,1.481c0.615,0.229,1.273,0.298,1.93,0.285l-0.006,0.001
	c10.049-0.252,10.269-3.126,10.269-3.126l0,0c0.32-0.677,0.397-1.468,0.482-2.206c0.16-1.385,0.189-2.784,0.189-4.178V7.414
	c0-3.054-0.334-5.04-1.001-5.956C13.623,0.972,13.058,0.548,12.246,0.294 M21.196,45.357c0,3.093,0.337,5.08,1.011,5.965
	c0.673,0.884,2.13,1.449,4.37,1.699c0,0,4.414,0.353,7.832,0c2.411-0.332,3.911-0.939,4.499-1.824
	c0.587-0.885,0.881-3.164,0.881-6.84V27.781H21.196V45.357z M46.096,4.952c-0.06,0.725-0.09,1.544-0.09,2.461v37.944
	c0,1.438,0.072,2.636,0.216,3.593c0.515-0.337,1.025-0.695,1.531-1.076c3.305-2.505,5.776-5.577,7.416-9.217
	c1.639-3.64,2.459-7.478,2.459-11.511C57.627,16.86,53.783,9.463,46.096,4.952 M37.432,1.507c-3.606-0.892-7.627-1.338-12.063-1.338
	h-0.643c-0.31,0-0.617,0.057-0.905,0.169c-0.737,0.285-1.275,0.658-1.615,1.119c-0.674,0.916-1.011,2.902-1.011,5.956v16.619h18.592
	V7.414c0-1.411-0.07-2.594-0.21-3.548C39.409,2.716,38.559,1.786,37.432,1.507"/>
</svg>
