<?xml version="1.0" encoding="UTF-8" standalone="no"?>
<svg
   xmlns:dc="http://purl.org/dc/elements/1.1/"
   xmlns:cc="http://creativecommons.org/ns#"
   xmlns:rdf="http://www.w3.org/1999/02/22-rdf-syntax-ns#"
   xmlns:svg="http://www.w3.org/2000/svg"
   xmlns="http://www.w3.org/2000/svg"
   xmlns:xlink="http://www.w3.org/1999/xlink"
   xmlns:sodipodi="http://sodipodi.sourceforge.net/DTD/sodipodi-0.dtd"
   xmlns:inkscape="http://www.inkscape.org/namespaces/inkscape"
   width="250.99998"
   height="51.618488"
   viewBox="0 0 188.24999 38.713867"
   version="1.2"
   id="svg475"
   sodipodi:docname="Welch Allyn logo.svg"
   inkscape:version="1.0.2 (e86c870879, 2021-01-15, custom)">
  <metadata
     id="metadata479">
    <rdf:RDF>
      <cc:Work
         rdf:about="">
        <dc:format>image/svg+xml</dc:format>
        <dc:type
           rdf:resource="http://purl.org/dc/dcmitype/StillImage" />
        <dc:title></dc:title>
      </cc:Work>
    </rdf:RDF>
  </metadata>
  <sodipodi:namedview
     pagecolor="#ffffff"
     bordercolor="#666666"
     borderopacity="1"
     objecttolerance="10"
     gridtolerance="10"
     guidetolerance="10"
     inkscape:pageopacity="0"
     inkscape:pageshadow="2"
     inkscape:window-width="1920"
     inkscape:window-height="1001"
     id="namedview477"
     showgrid="false"
     units="px"
     fit-margin-top="0.5"
     fit-margin-left="0.5"
     fit-margin-right="0.5"
     fit-margin-bottom="0.5"
     inkscape:zoom="3.1439394"
     inkscape:cx="5.8566473"
     inkscape:cy="77.060314"
     inkscape:window-x="-9"
     inkscape:window-y="-9"
     inkscape:window-maximized="1"
     inkscape:current-layer="svg475" />
  <g
     style="fill:#ffffff;fill-opacity:1"
     id="g278"
     transform="translate(-148.22259,-176.8491)">
    <use
       xlink:href="#glyph1-1"
       x="172.46471"
       y="654.1098"
       id="use276"
       width="100%"
       height="100%" />
  </g>
  <g
     style="fill:#455eb5;fill-opacity:1"
     id="g414"
     transform="translate(-148.22259,-176.8491)">
    <use
       xlink:href="#glyph9-1"
       x="570.6355"
       y="701.63281"
       id="use412"
       width="100%"
       height="100%" />
  </g>
  <g
     id="g606"
     transform="matrix(1.3020833,0,0,1.3020833,-46.499999,-46.499999)">
    <path
       style="fill:#009c57;fill-opacity:1;fill-rule:nonzero;stroke:none"
       d="m 69.117188,47.480469 h -2.636719 v -2.515625 c 0,-1.019531 0.816406,-1.191406 1.296875,-1.191406 0.546875,0 1.339844,0.179687 1.339844,1.164062 z m 4.363281,0.511719 c -0.01172,-1.972657 -0.976563,-5.371094 -5.703125,-5.371094 -2.675781,0 -6.277344,2.28125 -6.277344,6.511719 0,1.949218 0.578125,3.585937 1.667969,4.730468 1.003906,1.050782 2.742187,1.632813 4.824219,1.632813 3.054687,0 4.804687,-1.269531 5.464843,-4.167969 h -1.34375 c -0.472656,2.003906 -1.972656,2.828125 -3.671875,2.828125 -1.324218,0 -1.960937,-0.988281 -1.960937,-2.273437 V 48.75 c 0,0 6.871094,0.0039 6.929687,0.0039 0.05859,0 0.07031,-0.761718 0.07031,-0.761718"
       id="path456" />
    <path
       style="fill:#009c57;fill-opacity:1;fill-rule:nonzero;stroke:none"
       d="m 92.855469,51.308594 c -0.46875,2.257812 -2.195313,2.804687 -3.660156,2.804687 -0.570313,0 -1.222657,-0.160156 -1.488282,-0.433593 C 87.421875,53.375 87.289063,52.78125 87.289063,52.074219 v -6.992188 c 0,-0.378906 0.128906,-0.710937 0.390625,-0.945312 0.355468,-0.316406 0.6875,-0.355469 1.101562,-0.355469 0.550781,0 0.851563,0.148438 1.082031,0.390625 0.164063,0.171875 0.292969,0.613281 0.292969,1.007813 v 2.414062 l 4.03125,0.0039 c 0,-1.550781 -0.453125,-2.636718 -1.414062,-3.652343 -0.847657,-0.886719 -2.535157,-1.324219 -3.667969,-1.324219 -3.238281,0 -6.683594,2.28125 -6.683594,6.511719 0,1.949218 0.578125,3.585937 1.671875,4.734375 1,1.046875 2.789063,1.628906 4.824219,1.628906 2.394531,0 4.800781,-1.085938 5.355469,-4.195313 z m 0,0"
       id="path458" />
    <path
       style="fill:#009c57;fill-opacity:1;fill-rule:nonzero;stroke:none"
       d="M 80.25,53.734375 V 36.679688 c 0,0 -3.597656,0.316406 -4.253906,0.316406 h -2.046875 v 1.300781 h 1.867187 v 15.433594 h -1.757812 v 1.316406 H 82.125 v -1.3125 z m 0,0"
       id="path460" />
    <g
       clip-path="url(#clip5)"
       clip-rule="nonzero"
       id="g464">
      <path
         style="fill:#009c57;fill-opacity:1;fill-rule:nonzero;stroke:none"
         d="m 107.92969,46.601563 3.92578,12.007812 -2.27344,6.546875 -6.14453,-19.019531 c -0.62891,-1.714844 -1.73437,-1.558594 -1.73437,-1.558594 h -0.76172 v 9.152344 h 1.70703 v 1.316406 h -7.902346 v -1.3125 h 1.761719 v -15.4375 h -1.6875 v -1.300781 h 1.863281 c 0.660156,0 4.257816,-0.316406 4.257816,-0.316406 V 43.1875 l 1.88281,-0.0039 c 0,0 3.86328,-0.277344 5.10547,3.417969"
         id="path462" />
    </g>
    <path
       style="fill:#009c57;fill-opacity:1;fill-rule:nonzero;stroke:none"
       d="M 55.089844,36.449219 36,36.453125 v 1.308594 h 1.921875 l 6.667969,17.1875 h 2.886719 l 1.226562,-3.707031 -5.09375,-13.480469 h 4.097656 l 6.078125,17.1875 h 2.847657 l 6.164062,-17.1875 h 1.960938 v -1.308594 h -5.96875 v 1.308594 h 1.867187 c 0,0 -3.839844,10.777344 -3.839844,10.777344 L 53.027344,37.761719 h 2.0625 z m 0,0"
       id="path466" />
    <g
       clip-path="url(#clip6)"
       clip-rule="nonzero"
       id="g470">
      <path
         style="fill:#14336e;fill-opacity:1;fill-rule:nonzero;stroke:none"
         d="m 115.48828,48.21875 2.42188,-7.160156 2.10937,7.160156 z m 57.45703,-5.207031 c -0.92578,-1.042969 -3.32422,-0.859375 -3.32422,-0.859375 -1.58984,0.01172 -3.20703,1.28125 -4.10156,3.078125 v -2.898438 l -0.19141,0.01563 c -0.38671,0.03516 -0.77734,0.08203 -1.15234,0.128907 -0.65234,0.08203 -2.46094,0.09766 -3.12109,0.09766 l -1.91016,0.01172 h -4.06641 V 43.875 h 1.3086 c 0,0 -1.66797,4.488281 -2.40625,6.433594 0.11719,-0.304688 -0.0625,-0.457031 -0.0625,-0.457031 L 151.33984,43.875 h 1.60157 v -1.289062 h -8.67579 v -5.90625 c 0,0 -4.04296,0.3125 -4.70312,0.3125 h -1.59766 v 1.304687 h 1.42188 v 15.4375 h -3.89063 V 36.679688 c 0,0 -4.04297,0.3125 -4.70312,0.3125 h -1.59766 v 1.304687 h 1.41797 v 15.4375 H 127.625 L 121.62109,36 h -3.92968 l -6.00782,17.375 0.95704,3.035156 c 0,0 2.09375,-6.078125 2.2539,-6.558593 h 5.59375 l 1.23438,3.882812 h -2.04297 v 1.3125 h 26.51953 v -1.3125 h -1.9336 V 43.875 h 1.89063 l 5.50781,12.085938 -2.32422,5.730468 0.90625,3.402344 c 0,0 8.25391,-21.03125 8.3125,-21.21875 h 2.30469 v 9.859375 h -1.52344 v 1.3125 h 7.30469 v -1.3125 h -1.125 v -4.6875 c 0,-1.785156 0.69141,-3.082031 1.28516,-3.707031 0.29687,-0.308594 0.77343,-0.574219 1.33984,-0.574219 0.28125,0 0.55859,0.09375 0.73047,0.328125 0.125,0.164063 0.21484,0.398438 0.21484,0.789063 v 7.851562 h -1.36328 v 1.3125 h 7.47266 v -1.3125 h -1.45313 V 45.4375 c 0,-0.617187 0.0781,-1.4375 -0.80078,-2.425781"
         id="path468" />
    </g>
    <path
       style="fill:#14336e;fill-opacity:1;fill-rule:evenodd;stroke:none"
       d="m 177.89453,43.285156 c 0,-0.07031 -0.0234,-0.207031 0.0898,-0.207031 h 0.11719 c 0.25781,0 0.44141,0.136719 0.44141,0.417969 0,0.371094 -0.23438,0.4375 -0.5586,0.4375 h -0.0898 z m -0.375,1.457032 c 0,0.140625 -0.043,0.140625 -0.16016,0.140625 h -0.0664 V 45 h 0.83594 v -0.117187 c -0.19141,0 -0.21094,0.02344 -0.23438,-0.164063 v -0.644531 h 0.0703 c 0.11328,0 0.1836,0 0.25391,0.06641 0.0898,0.09375 0.25391,0.558594 0.39453,0.765625 0.043,0.06641 0.0937,0.06641 0.16016,0.09375 h 0.36718 v -0.117187 c -0.20312,-0.02734 -0.2539,-0.183594 -0.34375,-0.417969 -0.0703,-0.160156 -0.18359,-0.417969 -0.41796,-0.460938 0.27734,-0.04687 0.53125,-0.234375 0.53125,-0.554687 0,-0.371094 -0.20313,-0.488281 -0.8086,-0.488281 h -0.80859 v 0.117187 h 0.0937 c 0.11328,0 0.13281,0.02344 0.13281,0.136719 z m 0.62891,-2.3125 c 0.85547,0 1.57422,0.71875 1.57422,1.59375 0,0.882812 -0.71875,1.597656 -1.57422,1.597656 -0.85547,0 -1.57422,-0.714844 -1.57422,-1.597656 0,-0.875 0.71875,-1.59375 1.57422,-1.59375 m 0,3.515625 c 1.01953,0 1.85156,-0.878907 1.85156,-1.921875 0,-1.039063 -0.83203,-1.894532 -1.85156,-1.894532 -1.01953,0 -1.84766,0.855469 -1.84766,1.894532 0,1.042968 0.82813,1.921875 1.84766,1.921875"
       id="path472" />
  </g>
</svg>
